{
	"asset":{
		"generator":"Khronos glTF Blender I/O v4.1.62",
		"version":"2.0"
	},
	"scene":0,
	"scenes":[
		{
			"name":"Scene",
			"nodes":[
				0,
				2
			]
		}
	],
	"nodes":[
		{
			"mesh":0,
			"name":"Geo_Kitten",
			"scale":[
				0.023260990157723427,
				0.023260990157723427,
				0.023260990157723427
			]
		},
		{
			"name":"81e5767e4ec14194b89176b10fe2f7ba.obj.cleaner.materialmerger.gle"
		},
		{
			"children":[
				1
			],
			"name":"Sketchfab_model",
			"rotation":[
				-0.7071069478988647,
				0,
				0,
				0.7071066498756409
			],
			"scale":[
				0.3673027455806732,
				0.3673027753829956,
				0.3673027753829956
			]
		}
	],
	"materials":[
		{
			"name":"lambert2SG",
			"pbrMetallicRoughness":{
				"baseColorTexture":{
					"index":0
				},
				"metallicFactor":0
			}
		}
	],
	"meshes":[
		{
			"name":"Mesh_0",
			"primitives":[
				{
					"attributes":{
						"POSITION":0,
						"NORMAL":1,
						"TEXCOORD_0":2
					},
					"indices":3,
					"material":0
				}
			]
		}
	],
	"textures":[
		{
			"sampler":0,
			"source":0
		}
	],
	"images":[
		{
			"mimeType":"image/png",
			"name":"Image_0",
			"uri":"Image_0.png"
		}
	],
	"accessors":[
		{
			"bufferView":0,
			"componentType":5126,
			"count":1948,
			"max":[
				6.0651631355285645,
				20.575178146362305,
				18.89272689819336
			],
			"min":[
				-6.0651631355285645,
				-20.575178146362305,
				-18.89272689819336
			],
			"type":"VEC3"
		},
		{
			"bufferView":1,
			"componentType":5126,
			"count":1948,
			"type":"VEC3"
		},
		{
			"bufferView":2,
			"componentType":5126,
			"count":1948,
			"type":"VEC2"
		},
		{
			"bufferView":3,
			"componentType":5123,
			"count":1950,
			"type":"SCALAR"
		}
	],
	"bufferViews":[
		{
			"buffer":0,
			"byteLength":23376,
			"byteOffset":0,
			"target":34962
		},
		{
			"buffer":0,
			"byteLength":23376,
			"byteOffset":23376,
			"target":34962
		},
		{
			"buffer":0,
			"byteLength":15584,
			"byteOffset":46752,
			"target":34962
		},
		{
			"buffer":0,
			"byteLength":3900,
			"byteOffset":62336,
			"target":34963
		}
	],
	"samplers":[
		{
			"magFilter":9729,
			"minFilter":9987
		}
	],
	"buffers":[
		{
			"byteLength":66236,
			"uri":"cat.bin"
		}
	]
}
